<svg xmlns="http://www.w3.org/2000/svg" viewBox="0 0 97004 96868">
    <path d="M 96091 48469 L 96091 49697 L 96782 49697 L 96782 50887 L 96088 50887 L 96088 52097 L 96049 52097 L 96049 53346 L 96361 53346 L 96361 54596 L 96500 54596 L 96500 55797 L 96227 55797 L 96227 56911 L 95505 56911 L 95505 58032 L 94945 58032 L 94945 59323 L 95175 59323 L 95175 60605 L 95265 60605 L 95265 61531 L 94052 61531 L 94052 62949 L 94541 62949 L 94541 64071 L 94036 64071 L 94036 65260 L 93724 65260 L 93724 66097 L 92525 66097 L 92525 67469 L 92662 67469 L 92662 68684 L 92379 68684 L 92379 69809 L 91885 69809 L 91885 70703 L 90945 70703 L 90945 71900 L 90592 71900 L 90592 72989 L 90028 72989 L 90028 73889 L 89158 73889 L 89158 74839 L 88385 74839 L 88385 75646 L 87420 75646 L 87420 77119 L 87383 77119 L 87383 77639 L 86053 77639 L 86053 78718 L 85462 78718 L 85462 80004 L 85094 80004 L 85094 80457 L 83768 80457 L 83768 81433 L 83036 81433 L 83036 82716 L 82600 82716 L 82600 83287 L 81450 83287 L 81450 83806 L 80278 83806 L 80278 84904 L 79627 84904 L 79627 85964 L 78918 85964 L 78918 85988 L 77388 85988 L 77388 87052 L 76673 87052 L 76673 87607 L 75580 87607 L 75580 88150 L 74490 88150 L 74490 88960 L 73573 88960 L 73573 89556 L 72519 89556 L 72519 90529 L 71673 90529 L 71673 90542 L 70305 90542 L 70305 91708 L 69532 91708 L 69532 92108 L 68371 92108 L 68371 92360 L 67153 92360 L 67153 93121 L 66150 93121 L 66150 93070 L 64831 93070 L 64831 93401 L 63668 93401 L 63668 94319 L 62691 94319 L 62691 94562 L 61491 94562 L 61491 94514 L 60222 94514 L 60222 95270 L 59156 95270 L 59156 95748 L 58008 95748 L 58008 95140 L 56656 95140 L 56656 95846 L 55544 95846 L 55544 95708 L 54300 95708 L 54300 96443 L 53156 96443 L 53156 96085 L 51902 96085 L 51902 96487 L 50706 96487 L 50706 96768 L 49490 96768 L 49490 95926 L 48265 95926 L 48265 96547 L 47041 96547 L 47041 95799 L 45857 95799 L 45857 96418 L 44599 96418 L 44599 96304 L 43382 96304 L 43382 95546 L 42248 95546 L 42248 95655 L 41010 95655 L 41010 95787 L 39751 95787 L 39751 95398 L 38584 95398 L 38584 95311 L 37352 95311 L 37352 94536 L 36291 94536 L 36291 94846 L 34941 94846 L 34941 93590 L 34052 93590 L 34052 94110 L 32599 94110 L 32599 92908 L 31738 92908 L 31738 92529 L 30590 92529 L 30590 92329 L 29361 92329 L 29361 91731 L 28298 91731 L 28298 91632 L 26995 91632 L 26995 90647 L 26130 90647 L 26130 90083 L 25057 90083 L 25057 89604 L 23931 89604 L 23931 89034 L 22853 89034 L 22853 88305 L 21874 88305 L 21874 87370 L 21045 87370 L 21045 86561 L 20140 86561 L 20140 86262 L 18846 86262 L 18846 85512 L 17884 85512 L 17884 84559 L 17096 84559 L 17096 83912 L 16045 83912 L 16045 83284 L 14958 83284 L 14958 82130 L 14380 82130 L 14380 81506 L 13270 81506 L 13270 80443 L 12621 80443 L 12621 79438 L 11922 79438 L 11922 78495 L 11154 78495 L 11154 77821 L 10038 77821 L 10038 76684 L 9515 76684 L 9515 75844 L 8586 75844 L 8586 74322 L 8671 74322 L 8671 73365 L 7930 73365 L 7930 72404 L 7185 72404 L 7185 71367 L 6558 71367 L 6558 70461 L 5676 70461 L 5676 69107 L 5672 69107 L 5672 68397 L 4325 68397 L 4325 67223 L 3948 67223 L 3948 65802 L 4213 65802 L 4213 65003 L 2892 65003 L 2892 63560 L 3326 63560 L 3326 62647 L 2197 62647 L 2197 61449 L 1930 61449 L 1930 60168 L 1998 60168 L 1998 58974 L 1775 58974 L 1775 57841 L 1261 57841 L 1261 56655 L 969 56655 L 969 55443 L 818 55443 L 818 54204 L 903 54204 L 903 52988 L 875 52988 L 875 51830 L 115 51830 L 115 50592 L 310 50592 L 310 49359 L 889 49359 L 889 48459 L 93007 48459 L 93007 46946 L 748 46946 L 748 45747 L 952 45747 L 952 44471 L 100 44471 L 100 43349 L 1174 43349 L 1174 42047 L 497 42047 L 497 40852 L 778 40852 L 778 39752 L 1559 39752 L 1559 38499 L 1463 38499 L 1463 37315 L 1735 37315 L 1735 36014 L 1564 36014 L 1564 34941 L 2273 34941 L 2273 33718 L 2442 33718 L 2442 32592 L 2926 32592 L 2926 31380 L 3165 31380 L 3165 30317 L 3802 30317 L 3802 29236 L 4373 29236 L 4373 28201 L 5033 28201 L 5033 27029 L 5394 27029 L 5394 25885 L 5832 25885 L 5832 24981 L 6715 24981 L 6715 23761 L 7031 23761 L 7031 22988 L 8092 22988 L 8092 21618 L 8209 21618 L 8209 20715 L 9051 20715 L 9051 20017 L 10156 20017 L 10156 18653 L 10368 18653 L 10368 18169 L 11704 18169 L 11704 16605 L 11735 16605 L 11735 15860 L 12742 15860 L 12742 14823 L 13425 14823 L 13425 14548 L 14881 14548 L 14881 13679 L 15719 13679 L 15719 12833 L 16581 12833 L 16581 11422 L 16965 11422 L 16965 11377 L 18509 11377 L 18509 10232 L 19147 10232 L 19147 9236 L 19927 9236 L 19927 9183 L 21380 9183 L 21380 8097 L 22109 8097 L 22109 7734 L 23316 7734 L 23316 6840 L 24194 6840 L 24194 6424 L 25353 6424 L 25353 5751 L 26369 5751 L 26369 5382 L 27540 5382 L 27540 4350 L 28399 4350 L 28399 4083 L 29615 4083 L 29615 3296 L 30613 3296 L 30613 2831 L 31749 2831 L 31749 2531 L 32943 2531 L 32943 2794 L 34306 2794 L 34306 1751 L 35266 1751 L 35266 1407 L 36443 1407 L 36443 1182 L 37650 1182 L 37650 1470 L 38958 1470 L 38958 877 L 40082 877 L 40082 1164 L 41359 1164 L 41359 836 L 42535 836 L 42535 312 L 43702 312 L 43702 100 L 44911 100 L 44911 622 L 46162 622 L 46162 679 L 47373 679 L 47373 116 L 48582 116 L 48582 546 L 49791 546 L 49791 456 L 51008 456 L 51008 861 L 52194 861 L 52194 585 L 53435 585 L 53435 767 L 54637 767 L 54637 454 L 55916 454 L 55916 1339 L 57002 1339 L 57002 1739 L 58154 1739 L 58154 1259 L 59505 1259 L 59505 2179 L 60530 2179 L 60530 2654 L 61650 2654 L 61650 2243 L 63044 2243 L 63044 2774 L 64156 2774 L 64156 3384 L 65231 3384 L 65231 3605 L 66452 3605 L 66452 3882 L 67663 3882 L 67663 4448 L 68752 4448 L 68752 5237 L 69728 5237 L 69728 6033 L 70685 6033 L 70685 6667 L 71717 6667 L 71717 6839 L 73021 6839 L 73021 7348 L 74143 7348 L 74143 8645 L 74753 8645 L 74753 9077 L 75924 9077 L 75924 9736 L 76946 9736 L 76946 10499 L 77892 10499 L 77892 11377 L 78742 11377 L 78742 12176 L 79652 12176 L 79652 12586 L 80915 12586 L 80915 13881 L 81369 13881 L 81369 14309 L 82651 14309 L 82651 15287 L 83395 15287 L 83395 16398 L 83982 16398 L 83982 16913 L 85243 16913 L 85243 17987 L 85865 17987 L 85865 18920 L 86654 18920 L 86654 19843 L 87461 19843 L 87461 20958 L 88000 20958 L 88000 22180 L 88359 22180 L 88359 22984 L 89357 22984 L 89357 24093 L 89876 24093 L 89876 25130 L 90515 25130 L 90515 26222 L 91053 26222 L 91053 27224 L 91774 27224 L 91774 28603 L 91692 28603 L 91692 29435 L 92813 29435 L 92813 30662 L 93034 30662 L 93034 31947 L 93060 31947 L 93060 32857 L 94130 32857 L 94130 34007 L 94546 34007 L 94546 35188 L 94865 35188 L 94865 36450 L 94868 36450 L 94868 37565 L 95436 37565 L 95436 38768 L 95652 38768 L 95652 39947 L 95996 39947 L 95996 41176 L 96051 41176 L 96051 42460 L 95611 42460 L 95611 43651 L 95812 43651 L 95812 44804 L 96585 44804 L 96585 46048 L 96174 46048 L 96174 47243 L 96904 47243 L 96904 48469 " style="fill:none;stroke:rgb(0,0,0);stroke-width:100;fill-opacity:1;stroke-opacity:1;"/>
</svg>
